ffmpeg version 4.4.1 Copyright (c) 2000-2021 the FFmpeg developers
  built with Apple clang version 12.0.0 (clang-1200.0.32.29)
  configuration: --prefix=/usr/local/Cellar/ffmpeg/4.4.1 --enable-shared --enable-pthreads --enable-version3 --cc=clang --host-cflags= --host-ldflags= --enable-ffplay --enable-gnutls --enable-gpl --enable-libaom --enable-libbluray --enable-libdav1d --enable-libmp3lame --enable-libopus --enable-librav1e --enable-librubberband --enable-libsnappy --enable-libsrt --enable-libtesseract --enable-libtheora --enable-libvidstab --enable-libvorbis --enable-libvpx --enable-libwebp --enable-libx264 --enable-libx265 --enable-libxml2 --enable-libxvid --enable-lzma --enable-libfontconfig --enable-libfreetype --enable-frei0r --enable-libass --enable-libopencore-amrnb --enable-libopencore-amrwb --enable-libopenjpeg --enable-libspeex --enable-libsoxr --enable-libzmq --enable-libzimg --disable-libjack --disable-indev=jack --enable-avresample --enable-videotoolbox
  libavutil      56. 70.100 / 56. 70.100
  libavcodec     58.134.100 / 58.134.100
  libavformat    58. 76.100 / 58. 76.100
  libavdevice    58. 13.100 / 58. 13.100
  libavfilter     7.110.100 /  7.110.100
  libavresample   4.  0.  0 /  4.  0.  0
  libswscale      5.  9.100 /  5.  9.100
  libswresample   3.  9.100 /  3.  9.100
  libpostproc    55.  9.100 / 55.  9.100
Input #0, rawvideo, from 'pipe:':
  Duration: N/A, start: 0.000000, bitrate: 373248 kb/s
  Stream #0:0: Video: rawvideo (RGB[24] / 0x18424752), rgb24, 720x720, 373248 kb/s, 30 tbr, 30 tbn, 30 tbc
Stream mapping:
  Stream #0:0 -> #0:0 (rawvideo (native) -> h264 (libx264))
[libx264 @ 0x7fee7780f200] using cpu capabilities: MMX2 SSE2Fast SSSE3 SSE4.2 AVX FMA3 BMI2 AVX2
[libx264 @ 0x7fee7780f200] profile High, level 3.1, 4:2:0, 8-bit
[libx264 @ 0x7fee7780f200] 264 - core 163 r3060 5db6aa6 - H.264/MPEG-4 AVC codec - Copyleft 2003-2021 - http://www.videolan.org/x264.html - options: cabac=1 ref=3 deblock=1:0:0 analyse=0x3:0x113 me=hex subme=7 psy=1 psy_rd=1.00:0.00 mixed_ref=1 me_range=16 chroma_me=1 trellis=1 8x8dct=1 cqm=0 deadzone=21,11 fast_pskip=1 chroma_qp_offset=-2 threads=18 lookahead_threads=3 sliced_threads=0 nr=0 decimate=1 interlaced=0 bluray_compat=0 constrained_intra=0 bframes=3 b_pyramid=2 b_adapt=1 b_bias=0 direct=1 weightb=1 open_gop=0 weightp=2 keyint=250 keyint_min=25 scenecut=40 intra_refresh=0 rc_lookahead=40 rc=crf mbtree=1 crf=15.0 qcomp=0.60 qpmin=0 qpmax=69 qpstep=4 ip_ratio=1.40 aq=1:1.00
Output #0, mp4, to '/Users/jasonlaferrera/Downloads/video_test_4/myVideo.mp4':
  Metadata:
    comment         : Made with Video Export for Processing - https://git.io/vAXLk
    encoder         : Lavf58.76.100
  Stream #0:0: Video: h264 (avc1 / 0x31637661), yuv420p(tv, progressive), 720x720, q=2-31, 30 fps, 15360 tbn
    Metadata:
      encoder         : Lavc58.134.100 libx264
    Side data:
      cpb: bitrate max/min/avg: 0/0/0 buffer size: 0 vbv_delay: N/A
frame=    1 fps=0.0 q=0.0 size=       0kB time=00:00:00.00 bitrate=N/A speed=   0x    frame=   28 fps=0.0 q=0.0 size=       0kB time=00:00:00.00 bitrate=N/A speed=   0x    frame=   57 fps= 56 q=0.0 size=       0kB time=00:00:00.00 bitrate=N/A speed=   0x    frame=   87 fps= 57 q=21.0 size=    2816kB time=00:00:00.73 bitrate=31455.0kbits/s speed=0.478x    frame=  117 fps= 57 q=21.0 size=    4864kB time=00:00:01.73 bitrate=22987.4kbits/s speed=0.846x    frame=  147 fps= 58 q=21.0 size=    5888kB time=00:00:02.73 bitrate=17646.5kbits/s speed=1.07x    frame=  177 fps= 58 q=21.0 size=    7424kB time=00:00:03.73 bitrate=16290.2kbits/s speed=1.22x    frame=  207 fps= 58 q=21.0 size=    7936kB time=00:00:04.73 bitrate=13734.8kbits/s speed=1.33x    frame=  238 fps= 58 q=21.0 size=    8704kB time=00:00:05.76 bitrate=12364.6kbits/s speed=1.42x    frame=  268 fps= 59 q=21.0 size=    9728kB time=00:00:06.76 bitrate=11777.1kbits/s speed=1.48x    frame=  298 fps= 59 q=21.0 size=   11008kB time=00:00:07.76 bitrate=11610.8kbits/s speed=1.53x    frame=  328 fps= 59 q=21.0 size=   12032kB time=00:00:08.76 bitrate=11243.2kbits/s speed=1.57x    frame=  358 fps= 59 q=21.0 size=   12800kB time=00:00:09.76 bitrate=10736.2kbits/s speed=1.61x    frame=  389 fps= 59 q=21.0 size=   13824kB time=00:00:10.80 bitrate=10485.7kbits/s speed=1.64x    frame=  420 fps= 59 q=21.0 size=   14848kB time=00:00:11.83 bitrate=10279.0kbits/s speed=1.67x    frame=  450 fps= 59 q=21.0 size=   16640kB time=00:00:12.83 bitrate=10621.9kbits/s speed=1.69x    frame=  480 fps= 59 q=21.0 size=   17664kB time=00:00:13.83 bitrate=10460.5kbits/s speed=1.71x    frame=  511 fps= 59 q=21.0 size=   18432kB time=00:00:14.86 bitrate=10156.6kbits/s speed=1.72x    frame=  542 fps= 59 q=21.0 size=   19968kB time=00:00:15.90 bitrate=10287.9kbits/s speed=1.74x    frame=  572 fps= 59 q=18.0 size=   21760kB time=00:00:16.90 bitrate=10547.8kbits/s speed=1.75x    frame=  603 fps= 59 q=21.0 size=   22784kB time=00:00:17.93 bitrate=10407.8kbits/s speed=1.77x    frame=  633 fps= 59 q=21.0 size=   22784kB time=00:00:18.93 bitrate=9858.1kbits/s speed=1.78x    frame=  664 fps= 59 q=21.0 size=   23296kB time=00:00:19.96 bitrate=9558.0kbits/s speed=1.79x    frame=  695 fps= 59 q=21.0 size=   25088kB time=00:00:21.00 bitrate=9786.7kbits/s speed= 1.8x    frame=  725 fps= 59 q=21.0 size=   25856kB time=00:00:22.00 bitrate=9627.8kbits/s speed= 1.8x    frame=  755 fps= 59 q=21.0 size=   26624kB time=00:00:23.00 bitrate=9482.8kbits/s speed=1.81x    frame=  785 fps= 59 q=21.0 size=   28160kB time=00:00:24.00 bitrate=9611.9kbits/s speed=1.82x    frame=  815 fps= 59 q=21.0 size=   29696kB time=00:00:25.00 bitrate=9730.8kbits/s speed=1.82x    frame=  843 fps= 59 q=21.0 size=   31488kB time=00:00:25.93 bitrate=9946.6kbits/s speed=1.83x    frame=  873 fps= 59 q=21.0 size=   32256kB time=00:00:26.93 bitrate=9810.9kbits/s speed=1.83x    frame=  904 fps= 59 q=21.0 size=   33280kB time=00:00:27.96 bitrate=9748.4kbits/s speed=1.84x    frame=  934 fps= 59 q=21.0 size=   34816kB time=00:00:28.96 bitrate=9846.2kbits/s speed=1.84x    frame=  964 fps= 59 q=21.0 size=   36096kB time=00:00:29.96 bitrate=9867.6kbits/s speed=1.85x    frame=  994 fps= 59 q=21.0 size=   37120kB time=00:00:30.96 bitrate=9819.8kbits/s speed=1.85x    frame= 1024 fps= 59 q=21.0 size=   37632kB time=00:00:31.96 bitrate=9643.8kbits/s speed=1.86x    frame= 1055 fps= 59 q=21.0 size=   38656kB time=00:00:33.00 bitrate=9596.1kbits/s speed=1.86x    frame= 1086 fps= 60 q=21.0 size=   40192kB time=00:00:34.03 bitrate=9674.4kbits/s speed=1.86x    frame= 1116 fps= 60 q=21.0 size=   41216kB time=00:00:35.03 bitrate=9637.7kbits/s speed=1.87x    frame= 1147 fps= 60 q=21.0 size=   41472kB time=00:00:36.06 bitrate=9419.7kbits/s speed=1.87x    frame= 1177 fps= 60 q=21.0 size=   41984kB time=00:00:37.06 bitrate=9278.8kbits/s speed=1.87x    frame= 1208 fps= 60 q=21.0 size=   43008kB time=00:00:38.10 bitrate=9247.3kbits/s speed=1.88x    frame= 1238 fps= 60 q=21.0 size=   43776kB time=00:00:39.10 bitrate=9171.7kbits/s speed=1.88x    frame= 1269 fps= 60 q=21.0 size=   44800kB time=00:00:40.13 bitrate=9144.6kbits/s speed=1.88x    frame= 1299 fps= 60 q=18.0 size=   45568kB time=00:00:41.13 bitrate=9075.2kbits/s speed=1.89x    frame= 1329 fps= 60 q=21.0 size=   46336kB time=00:00:42.13 bitrate=9009.1kbits/s speed=1.89x    frame= 1359 fps= 60 q=21.0 size=   47616kB time=00:00:43.13 bitrate=9043.4kbits/s speed=1.89x    frame= 1390 fps= 60 q=21.0 size=   48896kB time=00:00:44.16 bitrate=9069.2kbits/s speed=1.89x    frame= 1420 fps= 60 q=21.0 size=   50432kB time=00:00:45.16 bitrate=9147.0kbits/s speed= 1.9x    frame= 1450 fps= 60 q=21.0 size=   51200kB time=00:00:46.16 bitrate=9085.1kbits/s speed= 1.9x    frame= 1480 fps= 60 q=21.0 size=   51968kB time=00:00:47.16 bitrate=9025.9kbits/s speed= 1.9x    frame= 1510 fps= 60 q=21.0 size=   53504kB time=00:00:48.16 bitrate=9099.7kbits/s speed= 1.9x    frame= 1541 fps= 60 q=21.0 size=   55296kB time=00:00:49.20 bitrate=9207.0kbits/s speed= 1.9x    frame= 1571 fps= 60 q=21.0 size=   57088kB time=00:00:50.20 bitrate=9316.0kbits/s speed=1.91x    frame= 1602 fps= 60 q=21.0 size=   58368kB time=00:00:51.23 bitrate=9332.8kbits/s speed=1.91x    frame= 1632 fps= 60 q=21.0 size=   59392kB time=00:00:52.23 bitrate=9314.7kbits/s speed=1.91x    frame= 1663 fps= 60 q=21.0 size=   61184kB time=00:00:53.26 bitrate=9409.6kbits/s speed=1.91x    frame= 1694 fps= 60 q=21.0 size=   62720kB time=00:00:54.30 bitrate=9462.3kbits/s speed=1.91x    frame= 1724 fps= 60 q=21.0 size=   64256kB time=00:00:55.30 bitrate=9518.7kbits/s speed=1.91x    frame= 1754 fps= 60 q=21.0 size=   65280kB time=00:00:56.30 bitrate=9498.6kbits/s speed=1.91x    frame= 1784 fps= 60 q=21.0 size=   66560kB time=00:00:57.30 bitrate=9515.9kbits/s speed=1.92x    frame= 1814 fps= 60 q=21.0 size=   68096kB time=00:00:58.30 bitrate=9568.5kbits/s speed=1.92x    frame= 1845 fps= 60 q=21.0 size=   69632kB time=00:00:59.33 bitrate=9613.9kbits/s speed=1.92x    frame= 1876 fps= 60 q=21.0 size=   71680kB time=00:01:00.36 bitrate=9727.3kbits/s speed=1.92x    frame= 1906 fps= 60 q=21.0 size=   72960kB time=00:01:01.36 bitrate=9739.6kbits/s speed=1.92x    frame= 1937 fps= 60 q=21.0 size=   74240kB time=00:01:02.40 bitrate=9746.4kbits/s speed=1.92x    frame= 1968 fps= 60 q=21.0 size=   75776kB time=00:01:03.43 bitrate=9786.0kbits/s speed=1.92x    frame= 1999 fps= 60 q=21.0 size=   77568kB time=00:01:04.46 bitrate=9856.8kbits/s speed=1.92x    frame= 2029 fps= 60 q=21.0 size=   78848kB time=00:01:05.46 bitrate=9866.4kbits/s speed=1.93x    frame= 2059 fps= 60 q=21.0 size=   79872kB time=00:01:06.46 bitrate=9844.2kbits/s speed=1.93x    frame= 2090 fps= 60 q=21.0 size=   81408kB time=00:01:07.50 bitrate=9879.9kbits/s speed=1.93x    frame= 2120 fps= 60 q=21.0 size=   83200kB time=00:01:08.50 bitrate=9950.0kbits/s speed=1.93x    frame= 2150 fps= 60 q=21.0 size=   84992kB time=00:01:09.50 bitrate=10018.0kbits/s speed=1.93x    frame= 2181 fps= 60 q=21.0 size=   86784kB time=00:01:10.53 bitrate=10079.4kbits/s speed=1.93x    frame= 2211 fps= 60 q=21.0 size=   88064kB time=00:01:11.53 bitrate=10085.1kbits/s speed=1.93x    frame= 2242 fps= 60 q=21.0 size=   89600kB time=00:01:12.56 bitrate=10114.9kbits/s speed=1.93x    frame= 2273 fps= 60 q=21.0 size=   91648kB time=00:01:13.60 bitrate=10200.8kbits/s speed=1.93x    frame= 2300 fps= 60 q=21.0 size=   93184kB time=00:01:14.50 bitrate=10246.5kbits/s speed=1.93x    frame= 2331 fps= 60 q=21.0 size=   94720kB time=00:01:15.53 bitrate=10272.9kbits/s speed=1.93x    frame= 2360 fps= 60 q=21.0 size=   95488kB time=00:01:16.50 bitrate=10225.3kbits/s speed=1.93x    frame= 2390 fps= 60 q=21.0 size=   97024kB time=00:01:17.50 bitrate=10255.7kbits/s speed=1.93x    frame= 2420 fps= 60 q=21.0 size=   98560kB time=00:01:18.50 bitrate=10285.4kbits/s speed=1.93x    frame= 2451 fps= 60 q=21.0 size=   99584kB time=00:01:19.53 bitrate=10257.2kbits/s speed=1.93x    frame= 2481 fps= 60 q=21.0 size=  100096kB time=00:01:20.53 bitrate=10181.9kbits/s speed=1.93x    frame= 2512 fps= 60 q=21.0 size=  100864kB time=00:01:21.56 bitrate=10130.1kbits/s speed=1.94x    frame= 2543 fps= 60 q=21.0 size=  102400kB time=00:01:22.60 bitrate=10155.7kbits/s speed=1.94x    frame= 2573 fps= 60 q=21.0 size=  103936kB time=00:01:23.60 bitrate=10184.7kbits/s speed=1.94x    frame= 2578 fps= 59 q=21.0 size=  103936kB time=00:01:23.76 bitrate=10164.5kbits/s speed=1.91x    frame= 2578 fps= 58 q=-1.0 Lsize=  107070kB time=00:01:25.83 bitrate=10218.8kbits/s speed=1.95x    
video:107037kB audio:0kB subtitle:0kB other streams:0kB global headers:0kB muxing overhead: 0.029986%
[libx264 @ 0x7fee7780f200] frame I:16    Avg QP:18.14  size:231609
[libx264 @ 0x7fee7780f200] frame P:714   Avg QP:19.93  size: 56913
[libx264 @ 0x7fee7780f200] frame B:1848  Avg QP:25.02  size: 35316
[libx264 @ 0x7fee7780f200] consecutive B-frames:  4.2%  0.7%  0.3% 94.8%
[libx264 @ 0x7fee7780f200] mb I  I16..4: 12.1%  0.4% 87.6%
[libx264 @ 0x7fee7780f200] mb P  I16..4:  1.6%  0.7% 16.1%  P16..4:  9.7%  4.7%  8.3%  0.0%  0.0%    skip:59.0%
[libx264 @ 0x7fee7780f200] mb B  I16..4:  0.1%  0.1%  6.8%  B16..8: 11.8%  4.5% 11.1%  direct: 2.6%  skip:63.0%  L0:49.4% L1:43.3% BI: 7.3%
[libx264 @ 0x7fee7780f200] 8x8 transform intra:2.5% inter:3.5%
[libx264 @ 0x7fee7780f200] coded y,uvDC,uvAC intra: 81.3% 87.9% 87.3% inter: 14.2% 19.6% 19.1%
[libx264 @ 0x7fee7780f200] i16 v,h,dc,p: 48% 46%  5%  1%
[libx264 @ 0x7fee7780f200] i8 v,h,dc,ddl,ddr,vr,hd,vl,hu: 20% 13% 66%  0%  0%  0%  0%  0%  0%
[libx264 @ 0x7fee7780f200] i4 v,h,dc,ddl,ddr,vr,hd,vl,hu: 29% 30% 19%  3%  4%  4%  3%  4%  4%
[libx264 @ 0x7fee7780f200] i8c dc,h,v,p: 55% 17% 20%  8%
[libx264 @ 0x7fee7780f200] Weighted P-Frames: Y:4.3% UV:3.9%
[libx264 @ 0x7fee7780f200] ref P L0: 55.2%  6.1% 24.4% 13.7%  0.6%
[libx264 @ 0x7fee7780f200] ref B L0: 75.9% 18.8%  5.3%
[libx264 @ 0x7fee7780f200] ref B L1: 92.9%  7.1%
[libx264 @ 0x7fee7780f200] kb/s:10203.78
